<mxfile host="65bd71144e">
    <diagram id="Mhpm6WAZBF2Vs1lS8o9N" name="Page-1">
        <mxGraphModel dx="0" dy="928" grid="1" gridSize="10" guides="1" tooltips="1" connect="1" arrows="1" fold="1" page="1" pageScale="1" pageWidth="850" pageHeight="1100" math="0" shadow="0">
            <root>
                <mxCell id="0"/>
                <mxCell id="1" parent="0"/>
                <mxCell id="2" value="" style="childLayout=tableLayout;recursiveResize=0;shadow=0;fillColor=default;" vertex="1" parent="1">
                    <mxGeometry x="15" y="190" width="305" height="249" as="geometry"/>
                </mxCell>
                <mxCell id="3" value="" style="shape=tableRow;horizontal=0;startSize=0;swimlaneHead=0;swimlaneBody=0;top=0;left=0;bottom=0;right=0;dropTarget=0;collapsible=0;recursiveResize=0;expand=0;fontStyle=0;fillColor=none;strokeColor=inherit;" vertex="1" parent="2">
                    <mxGeometry width="305" height="25" as="geometry"/>
                </mxCell>
                <mxCell id="4" value="0" style="connectable=0;recursiveResize=0;strokeColor=inherit;fillColor=none;align=center;whiteSpace=wrap;html=1;" vertex="1" parent="3">
                    <mxGeometry width="215" height="25" as="geometry">
                        <mxRectangle width="215" height="25" as="alternateBounds"/>
                    </mxGeometry>
                </mxCell>
                <mxCell id="5" value="LA" style="connectable=0;recursiveResize=0;strokeColor=inherit;fillColor=none;align=center;whiteSpace=wrap;html=1;" vertex="1" parent="3">
                    <mxGeometry x="215" width="90" height="25" as="geometry">
                        <mxRectangle width="90" height="25" as="alternateBounds"/>
                    </mxGeometry>
                </mxCell>
                <mxCell id="6" style="shape=tableRow;horizontal=0;startSize=0;swimlaneHead=0;swimlaneBody=0;top=0;left=0;bottom=0;right=0;dropTarget=0;collapsible=0;recursiveResize=0;expand=0;fontStyle=0;fillColor=none;strokeColor=inherit;" vertex="1" parent="2">
                    <mxGeometry y="25" width="305" height="28" as="geometry"/>
                </mxCell>
                <mxCell id="7" value="START -&amp;gt; . stmt" style="connectable=0;recursiveResize=0;strokeColor=inherit;fillColor=none;align=left;whiteSpace=wrap;html=1;" vertex="1" parent="6">
                    <mxGeometry width="215" height="28" as="geometry">
                        <mxRectangle width="215" height="28" as="alternateBounds"/>
                    </mxGeometry>
                </mxCell>
                <mxCell id="8" value="$" style="connectable=0;recursiveResize=0;strokeColor=inherit;fillColor=none;align=center;whiteSpace=wrap;html=1;" vertex="1" parent="6">
                    <mxGeometry x="215" width="90" height="28" as="geometry">
                        <mxRectangle width="90" height="28" as="alternateBounds"/>
                    </mxGeometry>
                </mxCell>
                <mxCell id="9" style="shape=tableRow;horizontal=0;startSize=0;swimlaneHead=0;swimlaneBody=0;top=0;left=0;bottom=0;right=0;dropTarget=0;collapsible=0;recursiveResize=0;expand=0;fontStyle=0;fillColor=none;strokeColor=inherit;" vertex="1" parent="2">
                    <mxGeometry y="53" width="305" height="28" as="geometry"/>
                </mxCell>
                <mxCell id="10" value="stmt -&amp;gt; . IF expr THEN stmt ELSE stmt" style="connectable=0;recursiveResize=0;strokeColor=inherit;fillColor=none;align=left;whiteSpace=wrap;html=1;" vertex="1" parent="9">
                    <mxGeometry width="215" height="28" as="geometry">
                        <mxRectangle width="215" height="28" as="alternateBounds"/>
                    </mxGeometry>
                </mxCell>
                <mxCell id="11" value="" style="connectable=0;recursiveResize=0;strokeColor=inherit;fillColor=none;align=center;whiteSpace=wrap;html=1;" vertex="1" parent="9">
                    <mxGeometry x="215" width="90" height="28" as="geometry">
                        <mxRectangle width="90" height="28" as="alternateBounds"/>
                    </mxGeometry>
                </mxCell>
                <mxCell id="12" style="shape=tableRow;horizontal=0;startSize=0;swimlaneHead=0;swimlaneBody=0;top=0;left=0;bottom=0;right=0;dropTarget=0;collapsible=0;recursiveResize=0;expand=0;fontStyle=0;fillColor=none;strokeColor=inherit;" vertex="1" parent="2">
                    <mxGeometry y="81" width="305" height="28" as="geometry"/>
                </mxCell>
                <mxCell id="13" value="stmt -&amp;gt; . expr : stmt stmt" style="connectable=0;recursiveResize=0;strokeColor=inherit;fillColor=none;align=left;whiteSpace=wrap;html=1;" vertex="1" parent="12">
                    <mxGeometry width="215" height="28" as="geometry">
                        <mxRectangle width="215" height="28" as="alternateBounds"/>
                    </mxGeometry>
                </mxCell>
                <mxCell id="14" value="" style="connectable=0;recursiveResize=0;strokeColor=inherit;fillColor=none;align=center;whiteSpace=wrap;html=1;" vertex="1" parent="12">
                    <mxGeometry x="215" width="90" height="28" as="geometry">
                        <mxRectangle width="90" height="28" as="alternateBounds"/>
                    </mxGeometry>
                </mxCell>
                <mxCell id="15" style="shape=tableRow;horizontal=0;startSize=0;swimlaneHead=0;swimlaneBody=0;top=0;left=0;bottom=0;right=0;dropTarget=0;collapsible=0;recursiveResize=0;expand=0;fontStyle=0;fillColor=none;strokeColor=inherit;" vertex="1" parent="2">
                    <mxGeometry y="109" width="305" height="28" as="geometry"/>
                </mxCell>
                <mxCell id="16" value="stmt -&amp;gt; . ARR [ expr ] := expr" style="connectable=0;recursiveResize=0;strokeColor=inherit;fillColor=none;align=left;whiteSpace=wrap;html=1;" vertex="1" parent="15">
                    <mxGeometry width="215" height="28" as="geometry">
                        <mxRectangle width="215" height="28" as="alternateBounds"/>
                    </mxGeometry>
                </mxCell>
                <mxCell id="17" value="" style="connectable=0;recursiveResize=0;strokeColor=inherit;fillColor=none;align=center;whiteSpace=wrap;html=1;" vertex="1" parent="15">
                    <mxGeometry x="215" width="90" height="28" as="geometry">
                        <mxRectangle width="90" height="28" as="alternateBounds"/>
                    </mxGeometry>
                </mxCell>
                <mxCell id="18" style="shape=tableRow;horizontal=0;startSize=0;swimlaneHead=0;swimlaneBody=0;top=0;left=0;bottom=0;right=0;dropTarget=0;collapsible=0;recursiveResize=0;expand=0;fontStyle=0;fillColor=none;strokeColor=inherit;" vertex="1" parent="2">
                    <mxGeometry y="137" width="305" height="28" as="geometry"/>
                </mxCell>
                <mxCell id="19" value="expr -&amp;gt; . num" style="connectable=0;recursiveResize=0;strokeColor=inherit;fillColor=none;align=left;whiteSpace=wrap;html=1;" vertex="1" parent="18">
                    <mxGeometry width="215" height="28" as="geometry">
                        <mxRectangle width="215" height="28" as="alternateBounds"/>
                    </mxGeometry>
                </mxCell>
                <mxCell id="20" value="" style="connectable=0;recursiveResize=0;strokeColor=inherit;fillColor=none;align=center;whiteSpace=wrap;html=1;" vertex="1" parent="18">
                    <mxGeometry x="215" width="90" height="28" as="geometry">
                        <mxRectangle width="90" height="28" as="alternateBounds"/>
                    </mxGeometry>
                </mxCell>
                <mxCell id="21" style="shape=tableRow;horizontal=0;startSize=0;swimlaneHead=0;swimlaneBody=0;top=0;left=0;bottom=0;right=0;dropTarget=0;collapsible=0;recursiveResize=0;expand=0;fontStyle=0;fillColor=none;strokeColor=inherit;" vertex="1" parent="2">
                    <mxGeometry y="165" width="305" height="28" as="geometry"/>
                </mxCell>
                <mxCell id="22" value="expr -&amp;gt; . expr + expr" style="connectable=0;recursiveResize=0;strokeColor=inherit;fillColor=none;align=left;whiteSpace=wrap;html=1;" vertex="1" parent="21">
                    <mxGeometry width="215" height="28" as="geometry">
                        <mxRectangle width="215" height="28" as="alternateBounds"/>
                    </mxGeometry>
                </mxCell>
                <mxCell id="23" value="" style="connectable=0;recursiveResize=0;strokeColor=inherit;fillColor=none;align=center;whiteSpace=wrap;html=1;" vertex="1" parent="21">
                    <mxGeometry x="215" width="90" height="28" as="geometry">
                        <mxRectangle width="90" height="28" as="alternateBounds"/>
                    </mxGeometry>
                </mxCell>
                <mxCell id="24" style="shape=tableRow;horizontal=0;startSize=0;swimlaneHead=0;swimlaneBody=0;top=0;left=0;bottom=0;right=0;dropTarget=0;collapsible=0;recursiveResize=0;expand=0;fontStyle=0;fillColor=none;strokeColor=inherit;" vertex="1" parent="2">
                    <mxGeometry y="193" width="305" height="28" as="geometry"/>
                </mxCell>
                <mxCell id="25" value="num -&amp;gt; . DIGIT" style="connectable=0;recursiveResize=0;strokeColor=inherit;fillColor=none;align=left;whiteSpace=wrap;html=1;" vertex="1" parent="24">
                    <mxGeometry width="215" height="28" as="geometry">
                        <mxRectangle width="215" height="28" as="alternateBounds"/>
                    </mxGeometry>
                </mxCell>
                <mxCell id="26" value="" style="connectable=0;recursiveResize=0;strokeColor=inherit;fillColor=none;align=center;whiteSpace=wrap;html=1;" vertex="1" parent="24">
                    <mxGeometry x="215" width="90" height="28" as="geometry">
                        <mxRectangle width="90" height="28" as="alternateBounds"/>
                    </mxGeometry>
                </mxCell>
                <mxCell id="56" style="shape=tableRow;horizontal=0;startSize=0;swimlaneHead=0;swimlaneBody=0;top=0;left=0;bottom=0;right=0;dropTarget=0;collapsible=0;recursiveResize=0;expand=0;fontStyle=0;fillColor=none;strokeColor=inherit;" vertex="1" parent="2">
                    <mxGeometry y="221" width="305" height="28" as="geometry"/>
                </mxCell>
                <mxCell id="57" value="num -&amp;gt; . num DIGIT" style="connectable=0;recursiveResize=0;strokeColor=inherit;fillColor=none;align=left;whiteSpace=wrap;html=1;" vertex="1" parent="56">
                    <mxGeometry width="215" height="28" as="geometry">
                        <mxRectangle width="215" height="28" as="alternateBounds"/>
                    </mxGeometry>
                </mxCell>
                <mxCell id="58" style="connectable=0;recursiveResize=0;strokeColor=inherit;fillColor=none;align=center;whiteSpace=wrap;html=1;" vertex="1" parent="56">
                    <mxGeometry x="215" width="90" height="28" as="geometry">
                        <mxRectangle width="90" height="28" as="alternateBounds"/>
                    </mxGeometry>
                </mxCell>
                <mxCell id="27" value="" style="childLayout=tableLayout;recursiveResize=0;shadow=0;fillColor=default;" vertex="1" parent="1">
                    <mxGeometry x="15" y="840" width="265" height="249" as="geometry"/>
                </mxCell>
                <mxCell id="28" value="" style="shape=tableRow;horizontal=0;startSize=0;swimlaneHead=0;swimlaneBody=0;top=0;left=0;bottom=0;right=0;dropTarget=0;collapsible=0;recursiveResize=0;expand=0;fontStyle=0;fillColor=none;strokeColor=inherit;" vertex="1" parent="27">
                    <mxGeometry width="265" height="25" as="geometry"/>
                </mxCell>
                <mxCell id="29" value="Rules" style="connectable=0;recursiveResize=0;strokeColor=inherit;fillColor=none;align=center;whiteSpace=wrap;html=1;" vertex="1" parent="28">
                    <mxGeometry width="33" height="25" as="geometry">
                        <mxRectangle width="33" height="25" as="alternateBounds"/>
                    </mxGeometry>
                </mxCell>
                <mxCell id="30" value="" style="connectable=0;recursiveResize=0;strokeColor=inherit;fillColor=none;align=center;whiteSpace=wrap;html=1;" vertex="1" parent="28">
                    <mxGeometry x="33" width="232" height="25" as="geometry">
                        <mxRectangle width="232" height="25" as="alternateBounds"/>
                    </mxGeometry>
                </mxCell>
                <mxCell id="31" style="shape=tableRow;horizontal=0;startSize=0;swimlaneHead=0;swimlaneBody=0;top=0;left=0;bottom=0;right=0;dropTarget=0;collapsible=0;recursiveResize=0;expand=0;fontStyle=0;fillColor=none;strokeColor=inherit;" vertex="1" parent="27">
                    <mxGeometry y="25" width="265" height="28" as="geometry"/>
                </mxCell>
                <mxCell id="32" value="0" style="connectable=0;recursiveResize=0;strokeColor=inherit;fillColor=none;align=center;whiteSpace=wrap;html=1;" vertex="1" parent="31">
                    <mxGeometry width="33" height="28" as="geometry">
                        <mxRectangle width="33" height="28" as="alternateBounds"/>
                    </mxGeometry>
                </mxCell>
                <mxCell id="33" value="START -&amp;gt; stmt" style="connectable=0;recursiveResize=0;strokeColor=inherit;fillColor=none;align=left;whiteSpace=wrap;html=1;" vertex="1" parent="31">
                    <mxGeometry x="33" width="232" height="28" as="geometry">
                        <mxRectangle width="232" height="28" as="alternateBounds"/>
                    </mxGeometry>
                </mxCell>
                <mxCell id="34" style="shape=tableRow;horizontal=0;startSize=0;swimlaneHead=0;swimlaneBody=0;top=0;left=0;bottom=0;right=0;dropTarget=0;collapsible=0;recursiveResize=0;expand=0;fontStyle=0;fillColor=none;strokeColor=inherit;" vertex="1" parent="27">
                    <mxGeometry y="53" width="265" height="28" as="geometry"/>
                </mxCell>
                <mxCell id="35" value="1" style="connectable=0;recursiveResize=0;strokeColor=inherit;fillColor=none;align=center;whiteSpace=wrap;html=1;" vertex="1" parent="34">
                    <mxGeometry width="33" height="28" as="geometry">
                        <mxRectangle width="33" height="28" as="alternateBounds"/>
                    </mxGeometry>
                </mxCell>
                <mxCell id="36" value="stmt -&amp;gt; IF expr THEN stmt ELSE stmt" style="connectable=0;recursiveResize=0;strokeColor=inherit;fillColor=none;align=left;whiteSpace=wrap;html=1;" vertex="1" parent="34">
                    <mxGeometry x="33" width="232" height="28" as="geometry">
                        <mxRectangle width="232" height="28" as="alternateBounds"/>
                    </mxGeometry>
                </mxCell>
                <mxCell id="37" style="shape=tableRow;horizontal=0;startSize=0;swimlaneHead=0;swimlaneBody=0;top=0;left=0;bottom=0;right=0;dropTarget=0;collapsible=0;recursiveResize=0;expand=0;fontStyle=0;fillColor=none;strokeColor=inherit;" vertex="1" parent="27">
                    <mxGeometry y="81" width="265" height="28" as="geometry"/>
                </mxCell>
                <mxCell id="38" value="2" style="connectable=0;recursiveResize=0;strokeColor=inherit;fillColor=none;align=center;whiteSpace=wrap;html=1;" vertex="1" parent="37">
                    <mxGeometry width="33" height="28" as="geometry">
                        <mxRectangle width="33" height="28" as="alternateBounds"/>
                    </mxGeometry>
                </mxCell>
                <mxCell id="39" value="stmt -&amp;gt; expr : stmt stmt" style="connectable=0;recursiveResize=0;strokeColor=inherit;fillColor=none;align=left;whiteSpace=wrap;html=1;" vertex="1" parent="37">
                    <mxGeometry x="33" width="232" height="28" as="geometry">
                        <mxRectangle width="232" height="28" as="alternateBounds"/>
                    </mxGeometry>
                </mxCell>
                <mxCell id="40" style="shape=tableRow;horizontal=0;startSize=0;swimlaneHead=0;swimlaneBody=0;top=0;left=0;bottom=0;right=0;dropTarget=0;collapsible=0;recursiveResize=0;expand=0;fontStyle=0;fillColor=none;strokeColor=inherit;" vertex="1" parent="27">
                    <mxGeometry y="109" width="265" height="28" as="geometry"/>
                </mxCell>
                <mxCell id="41" value="3" style="connectable=0;recursiveResize=0;strokeColor=inherit;fillColor=none;align=center;whiteSpace=wrap;html=1;" vertex="1" parent="40">
                    <mxGeometry width="33" height="28" as="geometry">
                        <mxRectangle width="33" height="28" as="alternateBounds"/>
                    </mxGeometry>
                </mxCell>
                <mxCell id="42" value="stmt -&amp;gt; ARR [ expr ] := expr" style="connectable=0;recursiveResize=0;strokeColor=inherit;fillColor=none;align=left;whiteSpace=wrap;html=1;" vertex="1" parent="40">
                    <mxGeometry x="33" width="232" height="28" as="geometry">
                        <mxRectangle width="232" height="28" as="alternateBounds"/>
                    </mxGeometry>
                </mxCell>
                <mxCell id="43" style="shape=tableRow;horizontal=0;startSize=0;swimlaneHead=0;swimlaneBody=0;top=0;left=0;bottom=0;right=0;dropTarget=0;collapsible=0;recursiveResize=0;expand=0;fontStyle=0;fillColor=none;strokeColor=inherit;" vertex="1" parent="27">
                    <mxGeometry y="137" width="265" height="28" as="geometry"/>
                </mxCell>
                <mxCell id="44" value="4" style="connectable=0;recursiveResize=0;strokeColor=inherit;fillColor=none;align=center;whiteSpace=wrap;html=1;" vertex="1" parent="43">
                    <mxGeometry width="33" height="28" as="geometry">
                        <mxRectangle width="33" height="28" as="alternateBounds"/>
                    </mxGeometry>
                </mxCell>
                <mxCell id="45" value="expr -&amp;gt; num" style="connectable=0;recursiveResize=0;strokeColor=inherit;fillColor=none;align=left;whiteSpace=wrap;html=1;" vertex="1" parent="43">
                    <mxGeometry x="33" width="232" height="28" as="geometry">
                        <mxRectangle width="232" height="28" as="alternateBounds"/>
                    </mxGeometry>
                </mxCell>
                <mxCell id="46" style="shape=tableRow;horizontal=0;startSize=0;swimlaneHead=0;swimlaneBody=0;top=0;left=0;bottom=0;right=0;dropTarget=0;collapsible=0;recursiveResize=0;expand=0;fontStyle=0;fillColor=none;strokeColor=inherit;" vertex="1" parent="27">
                    <mxGeometry y="165" width="265" height="28" as="geometry"/>
                </mxCell>
                <mxCell id="47" value="5" style="connectable=0;recursiveResize=0;strokeColor=inherit;fillColor=none;align=center;whiteSpace=wrap;html=1;" vertex="1" parent="46">
                    <mxGeometry width="33" height="28" as="geometry">
                        <mxRectangle width="33" height="28" as="alternateBounds"/>
                    </mxGeometry>
                </mxCell>
                <mxCell id="48" value="expr -&amp;gt; expr + expr" style="connectable=0;recursiveResize=0;strokeColor=inherit;fillColor=none;align=left;whiteSpace=wrap;html=1;" vertex="1" parent="46">
                    <mxGeometry x="33" width="232" height="28" as="geometry">
                        <mxRectangle width="232" height="28" as="alternateBounds"/>
                    </mxGeometry>
                </mxCell>
                <mxCell id="49" style="shape=tableRow;horizontal=0;startSize=0;swimlaneHead=0;swimlaneBody=0;top=0;left=0;bottom=0;right=0;dropTarget=0;collapsible=0;recursiveResize=0;expand=0;fontStyle=0;fillColor=none;strokeColor=inherit;" vertex="1" parent="27">
                    <mxGeometry y="193" width="265" height="28" as="geometry"/>
                </mxCell>
                <mxCell id="50" value="6" style="connectable=0;recursiveResize=0;strokeColor=inherit;fillColor=none;align=center;whiteSpace=wrap;html=1;" vertex="1" parent="49">
                    <mxGeometry width="33" height="28" as="geometry">
                        <mxRectangle width="33" height="28" as="alternateBounds"/>
                    </mxGeometry>
                </mxCell>
                <mxCell id="51" value="num -&amp;gt; DIGIT" style="connectable=0;recursiveResize=0;strokeColor=inherit;fillColor=none;align=left;whiteSpace=wrap;html=1;" vertex="1" parent="49">
                    <mxGeometry x="33" width="232" height="28" as="geometry">
                        <mxRectangle width="232" height="28" as="alternateBounds"/>
                    </mxGeometry>
                </mxCell>
                <mxCell id="52" style="shape=tableRow;horizontal=0;startSize=0;swimlaneHead=0;swimlaneBody=0;top=0;left=0;bottom=0;right=0;dropTarget=0;collapsible=0;recursiveResize=0;expand=0;fontStyle=0;fillColor=none;strokeColor=inherit;" vertex="1" parent="27">
                    <mxGeometry y="221" width="265" height="28" as="geometry"/>
                </mxCell>
                <mxCell id="53" value="7" style="connectable=0;recursiveResize=0;strokeColor=inherit;fillColor=none;align=center;whiteSpace=wrap;html=1;" vertex="1" parent="52">
                    <mxGeometry width="33" height="28" as="geometry">
                        <mxRectangle width="33" height="28" as="alternateBounds"/>
                    </mxGeometry>
                </mxCell>
                <mxCell id="54" value="num -&amp;gt; num DIGIT" style="connectable=0;recursiveResize=0;strokeColor=inherit;fillColor=none;align=left;whiteSpace=wrap;html=1;" vertex="1" parent="52">
                    <mxGeometry x="33" width="232" height="28" as="geometry">
                        <mxRectangle width="232" height="28" as="alternateBounds"/>
                    </mxGeometry>
                </mxCell>
                <mxCell id="59" value="" style="childLayout=tableLayout;recursiveResize=0;shadow=0;fillColor=default;" vertex="1" parent="1">
                    <mxGeometry x="440" y="22" width="305" height="53" as="geometry"/>
                </mxCell>
                <mxCell id="60" value="" style="shape=tableRow;horizontal=0;startSize=0;swimlaneHead=0;swimlaneBody=0;top=0;left=0;bottom=0;right=0;dropTarget=0;collapsible=0;recursiveResize=0;expand=0;fontStyle=0;fillColor=none;strokeColor=inherit;" vertex="1" parent="59">
                    <mxGeometry width="305" height="25" as="geometry"/>
                </mxCell>
                <mxCell id="61" value="1" style="connectable=0;recursiveResize=0;strokeColor=inherit;fillColor=none;align=center;whiteSpace=wrap;html=1;" vertex="1" parent="60">
                    <mxGeometry width="215" height="25" as="geometry">
                        <mxRectangle width="215" height="25" as="alternateBounds"/>
                    </mxGeometry>
                </mxCell>
                <mxCell id="62" value="LA" style="connectable=0;recursiveResize=0;strokeColor=inherit;fillColor=none;align=center;whiteSpace=wrap;html=1;" vertex="1" parent="60">
                    <mxGeometry x="215" width="90" height="25" as="geometry">
                        <mxRectangle width="90" height="25" as="alternateBounds"/>
                    </mxGeometry>
                </mxCell>
                <mxCell id="63" style="shape=tableRow;horizontal=0;startSize=0;swimlaneHead=0;swimlaneBody=0;top=0;left=0;bottom=0;right=0;dropTarget=0;collapsible=0;recursiveResize=0;expand=0;fontStyle=0;fillColor=none;strokeColor=inherit;" vertex="1" parent="59">
                    <mxGeometry y="25" width="305" height="28" as="geometry"/>
                </mxCell>
                <mxCell id="64" value="START -&amp;gt; stmt ." style="connectable=0;recursiveResize=0;strokeColor=inherit;fillColor=none;align=left;whiteSpace=wrap;html=1;" vertex="1" parent="63">
                    <mxGeometry width="215" height="28" as="geometry">
                        <mxRectangle width="215" height="28" as="alternateBounds"/>
                    </mxGeometry>
                </mxCell>
                <mxCell id="65" value="$" style="connectable=0;recursiveResize=0;strokeColor=inherit;fillColor=none;align=center;whiteSpace=wrap;html=1;" vertex="1" parent="63">
                    <mxGeometry x="215" width="90" height="28" as="geometry">
                        <mxRectangle width="90" height="28" as="alternateBounds"/>
                    </mxGeometry>
                </mxCell>
                <mxCell id="87" style="edgeStyle=orthogonalEdgeStyle;html=1;exitX=1;exitY=0.5;exitDx=0;exitDy=0;entryX=0;entryY=0.5;entryDx=0;entryDy=0;" edge="1" parent="1" source="6" target="63">
                    <mxGeometry relative="1" as="geometry">
                        <Array as="points">
                            <mxPoint x="350" y="229"/>
                            <mxPoint x="350" y="61"/>
                        </Array>
                    </mxGeometry>
                </mxCell>
                <mxCell id="88" value="" style="childLayout=tableLayout;recursiveResize=0;shadow=0;fillColor=default;" vertex="1" parent="1">
                    <mxGeometry x="440" y="100" width="305" height="165" as="geometry"/>
                </mxCell>
                <mxCell id="89" value="" style="shape=tableRow;horizontal=0;startSize=0;swimlaneHead=0;swimlaneBody=0;top=0;left=0;bottom=0;right=0;dropTarget=0;collapsible=0;recursiveResize=0;expand=0;fontStyle=0;fillColor=none;strokeColor=inherit;" vertex="1" parent="88">
                    <mxGeometry width="305" height="25" as="geometry"/>
                </mxCell>
                <mxCell id="90" value="2" style="connectable=0;recursiveResize=0;strokeColor=inherit;fillColor=none;align=center;whiteSpace=wrap;html=1;" vertex="1" parent="89">
                    <mxGeometry width="215" height="25" as="geometry">
                        <mxRectangle width="215" height="25" as="alternateBounds"/>
                    </mxGeometry>
                </mxCell>
                <mxCell id="91" value="LA" style="connectable=0;recursiveResize=0;strokeColor=inherit;fillColor=none;align=center;whiteSpace=wrap;html=1;" vertex="1" parent="89">
                    <mxGeometry x="215" width="90" height="25" as="geometry">
                        <mxRectangle width="90" height="25" as="alternateBounds"/>
                    </mxGeometry>
                </mxCell>
                <mxCell id="92" style="shape=tableRow;horizontal=0;startSize=0;swimlaneHead=0;swimlaneBody=0;top=0;left=0;bottom=0;right=0;dropTarget=0;collapsible=0;recursiveResize=0;expand=0;fontStyle=0;fillColor=none;strokeColor=inherit;" vertex="1" parent="88">
                    <mxGeometry y="25" width="305" height="28" as="geometry"/>
                </mxCell>
                <mxCell id="93" value="stmt -&amp;gt; IF . expr THEN stmt ELSE stmt" style="connectable=0;recursiveResize=0;strokeColor=inherit;fillColor=none;align=left;whiteSpace=wrap;html=1;" vertex="1" parent="92">
                    <mxGeometry width="215" height="28" as="geometry">
                        <mxRectangle width="215" height="28" as="alternateBounds"/>
                    </mxGeometry>
                </mxCell>
                <mxCell id="94" value="" style="connectable=0;recursiveResize=0;strokeColor=inherit;fillColor=none;align=center;whiteSpace=wrap;html=1;" vertex="1" parent="92">
                    <mxGeometry x="215" width="90" height="28" as="geometry">
                        <mxRectangle width="90" height="28" as="alternateBounds"/>
                    </mxGeometry>
                </mxCell>
                <mxCell id="141" style="shape=tableRow;horizontal=0;startSize=0;swimlaneHead=0;swimlaneBody=0;top=0;left=0;bottom=0;right=0;dropTarget=0;collapsible=0;recursiveResize=0;expand=0;fontStyle=0;fillColor=none;strokeColor=inherit;" vertex="1" parent="88">
                    <mxGeometry y="53" width="305" height="28" as="geometry"/>
                </mxCell>
                <mxCell id="142" value="expr -&amp;gt; . num" style="connectable=0;recursiveResize=0;strokeColor=inherit;fillColor=none;align=left;whiteSpace=wrap;html=1;" vertex="1" parent="141">
                    <mxGeometry width="215" height="28" as="geometry">
                        <mxRectangle width="215" height="28" as="alternateBounds"/>
                    </mxGeometry>
                </mxCell>
                <mxCell id="143" style="connectable=0;recursiveResize=0;strokeColor=inherit;fillColor=none;align=center;whiteSpace=wrap;html=1;" vertex="1" parent="141">
                    <mxGeometry x="215" width="90" height="28" as="geometry">
                        <mxRectangle width="90" height="28" as="alternateBounds"/>
                    </mxGeometry>
                </mxCell>
                <mxCell id="144" style="shape=tableRow;horizontal=0;startSize=0;swimlaneHead=0;swimlaneBody=0;top=0;left=0;bottom=0;right=0;dropTarget=0;collapsible=0;recursiveResize=0;expand=0;fontStyle=0;fillColor=none;strokeColor=inherit;" vertex="1" parent="88">
                    <mxGeometry y="81" width="305" height="28" as="geometry"/>
                </mxCell>
                <mxCell id="145" value="expr -&amp;gt; . expr + expr&amp;nbsp;" style="connectable=0;recursiveResize=0;strokeColor=inherit;fillColor=none;align=left;whiteSpace=wrap;html=1;" vertex="1" parent="144">
                    <mxGeometry width="215" height="28" as="geometry">
                        <mxRectangle width="215" height="28" as="alternateBounds"/>
                    </mxGeometry>
                </mxCell>
                <mxCell id="146" style="connectable=0;recursiveResize=0;strokeColor=inherit;fillColor=none;align=center;whiteSpace=wrap;html=1;" vertex="1" parent="144">
                    <mxGeometry x="215" width="90" height="28" as="geometry">
                        <mxRectangle width="90" height="28" as="alternateBounds"/>
                    </mxGeometry>
                </mxCell>
                <mxCell id="147" style="shape=tableRow;horizontal=0;startSize=0;swimlaneHead=0;swimlaneBody=0;top=0;left=0;bottom=0;right=0;dropTarget=0;collapsible=0;recursiveResize=0;expand=0;fontStyle=0;fillColor=none;strokeColor=inherit;" vertex="1" parent="88">
                    <mxGeometry y="109" width="305" height="28" as="geometry"/>
                </mxCell>
                <mxCell id="148" value="num -&amp;gt; . DIGIT" style="connectable=0;recursiveResize=0;strokeColor=inherit;fillColor=none;align=left;whiteSpace=wrap;html=1;" vertex="1" parent="147">
                    <mxGeometry width="215" height="28" as="geometry">
                        <mxRectangle width="215" height="28" as="alternateBounds"/>
                    </mxGeometry>
                </mxCell>
                <mxCell id="149" style="connectable=0;recursiveResize=0;strokeColor=inherit;fillColor=none;align=center;whiteSpace=wrap;html=1;" vertex="1" parent="147">
                    <mxGeometry x="215" width="90" height="28" as="geometry">
                        <mxRectangle width="90" height="28" as="alternateBounds"/>
                    </mxGeometry>
                </mxCell>
                <mxCell id="150" style="shape=tableRow;horizontal=0;startSize=0;swimlaneHead=0;swimlaneBody=0;top=0;left=0;bottom=0;right=0;dropTarget=0;collapsible=0;recursiveResize=0;expand=0;fontStyle=0;fillColor=none;strokeColor=inherit;" vertex="1" parent="88">
                    <mxGeometry y="137" width="305" height="28" as="geometry"/>
                </mxCell>
                <mxCell id="151" value="num -&amp;gt; . num DIGIT" style="connectable=0;recursiveResize=0;strokeColor=inherit;fillColor=none;align=left;whiteSpace=wrap;html=1;" vertex="1" parent="150">
                    <mxGeometry width="215" height="28" as="geometry">
                        <mxRectangle width="215" height="28" as="alternateBounds"/>
                    </mxGeometry>
                </mxCell>
                <mxCell id="152" style="connectable=0;recursiveResize=0;strokeColor=inherit;fillColor=none;align=center;whiteSpace=wrap;html=1;" vertex="1" parent="150">
                    <mxGeometry x="215" width="90" height="28" as="geometry">
                        <mxRectangle width="90" height="28" as="alternateBounds"/>
                    </mxGeometry>
                </mxCell>
                <mxCell id="95" style="edgeStyle=orthogonalEdgeStyle;html=1;exitX=1;exitY=0.5;exitDx=0;exitDy=0;entryX=0;entryY=0.5;entryDx=0;entryDy=0;" edge="1" parent="1" source="9" target="92">
                    <mxGeometry relative="1" as="geometry"/>
                </mxCell>
                <mxCell id="96" value="" style="childLayout=tableLayout;recursiveResize=0;shadow=0;fillColor=default;" vertex="1" parent="1">
                    <mxGeometry x="440" y="310" width="305" height="81" as="geometry"/>
                </mxCell>
                <mxCell id="97" value="" style="shape=tableRow;horizontal=0;startSize=0;swimlaneHead=0;swimlaneBody=0;top=0;left=0;bottom=0;right=0;dropTarget=0;collapsible=0;recursiveResize=0;expand=0;fontStyle=0;fillColor=none;strokeColor=inherit;" vertex="1" parent="96">
                    <mxGeometry width="305" height="25" as="geometry"/>
                </mxCell>
                <mxCell id="98" value="3" style="connectable=0;recursiveResize=0;strokeColor=inherit;fillColor=none;align=center;whiteSpace=wrap;html=1;" vertex="1" parent="97">
                    <mxGeometry width="215" height="25" as="geometry">
                        <mxRectangle width="215" height="25" as="alternateBounds"/>
                    </mxGeometry>
                </mxCell>
                <mxCell id="99" value="LA" style="connectable=0;recursiveResize=0;strokeColor=inherit;fillColor=none;align=center;whiteSpace=wrap;html=1;" vertex="1" parent="97">
                    <mxGeometry x="215" width="90" height="25" as="geometry">
                        <mxRectangle width="90" height="25" as="alternateBounds"/>
                    </mxGeometry>
                </mxCell>
                <mxCell id="100" style="shape=tableRow;horizontal=0;startSize=0;swimlaneHead=0;swimlaneBody=0;top=0;left=0;bottom=0;right=0;dropTarget=0;collapsible=0;recursiveResize=0;expand=0;fontStyle=0;fillColor=none;strokeColor=inherit;" vertex="1" parent="96">
                    <mxGeometry y="25" width="305" height="28" as="geometry"/>
                </mxCell>
                <mxCell id="101" value="stmt -&amp;gt; expr . : stmt&amp;nbsp; stmt" style="connectable=0;recursiveResize=0;strokeColor=inherit;fillColor=none;align=left;whiteSpace=wrap;html=1;" vertex="1" parent="100">
                    <mxGeometry width="215" height="28" as="geometry">
                        <mxRectangle width="215" height="28" as="alternateBounds"/>
                    </mxGeometry>
                </mxCell>
                <mxCell id="102" value="" style="connectable=0;recursiveResize=0;strokeColor=inherit;fillColor=none;align=center;whiteSpace=wrap;html=1;" vertex="1" parent="100">
                    <mxGeometry x="215" width="90" height="28" as="geometry">
                        <mxRectangle width="90" height="28" as="alternateBounds"/>
                    </mxGeometry>
                </mxCell>
                <mxCell id="104" style="shape=tableRow;horizontal=0;startSize=0;swimlaneHead=0;swimlaneBody=0;top=0;left=0;bottom=0;right=0;dropTarget=0;collapsible=0;recursiveResize=0;expand=0;fontStyle=0;fillColor=none;strokeColor=inherit;" vertex="1" parent="96">
                    <mxGeometry y="53" width="305" height="28" as="geometry"/>
                </mxCell>
                <mxCell id="105" value="expr -&amp;gt; expr . + expr" style="connectable=0;recursiveResize=0;strokeColor=inherit;fillColor=none;align=left;whiteSpace=wrap;html=1;" vertex="1" parent="104">
                    <mxGeometry width="215" height="28" as="geometry">
                        <mxRectangle width="215" height="28" as="alternateBounds"/>
                    </mxGeometry>
                </mxCell>
                <mxCell id="106" style="connectable=0;recursiveResize=0;strokeColor=inherit;fillColor=none;align=center;whiteSpace=wrap;html=1;" vertex="1" parent="104">
                    <mxGeometry x="215" width="90" height="28" as="geometry">
                        <mxRectangle width="90" height="28" as="alternateBounds"/>
                    </mxGeometry>
                </mxCell>
                <mxCell id="103" style="edgeStyle=orthogonalEdgeStyle;html=1;exitX=1;exitY=0.5;exitDx=0;exitDy=0;entryX=0;entryY=0.5;entryDx=0;entryDy=0;jumpStyle=arc;" edge="1" parent="1" source="12" target="100">
                    <mxGeometry relative="1" as="geometry">
                        <Array as="points">
                            <mxPoint x="400" y="285"/>
                            <mxPoint x="400" y="349"/>
                        </Array>
                    </mxGeometry>
                </mxCell>
                <mxCell id="107" value="" style="childLayout=tableLayout;recursiveResize=0;shadow=0;fillColor=default;" vertex="1" parent="1">
                    <mxGeometry x="440" y="430" width="305" height="53" as="geometry"/>
                </mxCell>
                <mxCell id="108" value="" style="shape=tableRow;horizontal=0;startSize=0;swimlaneHead=0;swimlaneBody=0;top=0;left=0;bottom=0;right=0;dropTarget=0;collapsible=0;recursiveResize=0;expand=0;fontStyle=0;fillColor=none;strokeColor=inherit;" vertex="1" parent="107">
                    <mxGeometry width="305" height="25" as="geometry"/>
                </mxCell>
                <mxCell id="109" value="4" style="connectable=0;recursiveResize=0;strokeColor=inherit;fillColor=none;align=center;whiteSpace=wrap;html=1;" vertex="1" parent="108">
                    <mxGeometry width="215" height="25" as="geometry">
                        <mxRectangle width="215" height="25" as="alternateBounds"/>
                    </mxGeometry>
                </mxCell>
                <mxCell id="110" value="LA" style="connectable=0;recursiveResize=0;strokeColor=inherit;fillColor=none;align=center;whiteSpace=wrap;html=1;" vertex="1" parent="108">
                    <mxGeometry x="215" width="90" height="25" as="geometry">
                        <mxRectangle width="90" height="25" as="alternateBounds"/>
                    </mxGeometry>
                </mxCell>
                <mxCell id="111" style="shape=tableRow;horizontal=0;startSize=0;swimlaneHead=0;swimlaneBody=0;top=0;left=0;bottom=0;right=0;dropTarget=0;collapsible=0;recursiveResize=0;expand=0;fontStyle=0;fillColor=none;strokeColor=inherit;" vertex="1" parent="107">
                    <mxGeometry y="25" width="305" height="28" as="geometry"/>
                </mxCell>
                <mxCell id="112" value="stmt -&amp;gt; ARR . [ expr ] := expr" style="connectable=0;recursiveResize=0;strokeColor=inherit;fillColor=none;align=left;whiteSpace=wrap;html=1;" vertex="1" parent="111">
                    <mxGeometry width="215" height="28" as="geometry">
                        <mxRectangle width="215" height="28" as="alternateBounds"/>
                    </mxGeometry>
                </mxCell>
                <mxCell id="113" value="" style="connectable=0;recursiveResize=0;strokeColor=inherit;fillColor=none;align=center;whiteSpace=wrap;html=1;" vertex="1" parent="111">
                    <mxGeometry x="215" width="90" height="28" as="geometry">
                        <mxRectangle width="90" height="28" as="alternateBounds"/>
                    </mxGeometry>
                </mxCell>
                <mxCell id="114" style="edgeStyle=orthogonalEdgeStyle;html=1;exitX=1;exitY=0.5;exitDx=0;exitDy=0;entryX=0;entryY=0.5;entryDx=0;entryDy=0;" edge="1" parent="1" source="15" target="111">
                    <mxGeometry relative="1" as="geometry">
                        <Array as="points">
                            <mxPoint x="390" y="313"/>
                            <mxPoint x="390" y="469"/>
                        </Array>
                    </mxGeometry>
                </mxCell>
                <mxCell id="115" value="" style="childLayout=tableLayout;recursiveResize=0;shadow=0;fillColor=default;" vertex="1" parent="1">
                    <mxGeometry x="440" y="510" width="305" height="81" as="geometry"/>
                </mxCell>
                <mxCell id="116" value="" style="shape=tableRow;horizontal=0;startSize=0;swimlaneHead=0;swimlaneBody=0;top=0;left=0;bottom=0;right=0;dropTarget=0;collapsible=0;recursiveResize=0;expand=0;fontStyle=0;fillColor=none;strokeColor=inherit;" vertex="1" parent="115">
                    <mxGeometry width="305" height="25" as="geometry"/>
                </mxCell>
                <mxCell id="117" value="5" style="connectable=0;recursiveResize=0;strokeColor=inherit;fillColor=none;align=center;whiteSpace=wrap;html=1;" vertex="1" parent="116">
                    <mxGeometry width="215" height="25" as="geometry">
                        <mxRectangle width="215" height="25" as="alternateBounds"/>
                    </mxGeometry>
                </mxCell>
                <mxCell id="118" value="LA" style="connectable=0;recursiveResize=0;strokeColor=inherit;fillColor=none;align=center;whiteSpace=wrap;html=1;" vertex="1" parent="116">
                    <mxGeometry x="215" width="90" height="25" as="geometry">
                        <mxRectangle width="90" height="25" as="alternateBounds"/>
                    </mxGeometry>
                </mxCell>
                <mxCell id="119" style="shape=tableRow;horizontal=0;startSize=0;swimlaneHead=0;swimlaneBody=0;top=0;left=0;bottom=0;right=0;dropTarget=0;collapsible=0;recursiveResize=0;expand=0;fontStyle=0;fillColor=none;strokeColor=inherit;" vertex="1" parent="115">
                    <mxGeometry y="25" width="305" height="28" as="geometry"/>
                </mxCell>
                <mxCell id="120" value="expr -&amp;gt; num ." style="connectable=0;recursiveResize=0;strokeColor=inherit;fillColor=none;align=left;whiteSpace=wrap;html=1;" vertex="1" parent="119">
                    <mxGeometry width="215" height="28" as="geometry">
                        <mxRectangle width="215" height="28" as="alternateBounds"/>
                    </mxGeometry>
                </mxCell>
                <mxCell id="121" value="" style="connectable=0;recursiveResize=0;strokeColor=inherit;fillColor=none;align=center;whiteSpace=wrap;html=1;" vertex="1" parent="119">
                    <mxGeometry x="215" width="90" height="28" as="geometry">
                        <mxRectangle width="90" height="28" as="alternateBounds"/>
                    </mxGeometry>
                </mxCell>
                <mxCell id="122" style="shape=tableRow;horizontal=0;startSize=0;swimlaneHead=0;swimlaneBody=0;top=0;left=0;bottom=0;right=0;dropTarget=0;collapsible=0;recursiveResize=0;expand=0;fontStyle=0;fillColor=none;strokeColor=inherit;" vertex="1" parent="115">
                    <mxGeometry y="53" width="305" height="28" as="geometry"/>
                </mxCell>
                <mxCell id="123" value="num -&amp;gt; num . DIGIT" style="connectable=0;recursiveResize=0;strokeColor=inherit;fillColor=none;align=left;whiteSpace=wrap;html=1;" vertex="1" parent="122">
                    <mxGeometry width="215" height="28" as="geometry">
                        <mxRectangle width="215" height="28" as="alternateBounds"/>
                    </mxGeometry>
                </mxCell>
                <mxCell id="124" style="connectable=0;recursiveResize=0;strokeColor=inherit;fillColor=none;align=center;whiteSpace=wrap;html=1;" vertex="1" parent="122">
                    <mxGeometry x="215" width="90" height="28" as="geometry">
                        <mxRectangle width="90" height="28" as="alternateBounds"/>
                    </mxGeometry>
                </mxCell>
                <mxCell id="125" style="edgeStyle=orthogonalEdgeStyle;html=1;exitX=1;exitY=0.5;exitDx=0;exitDy=0;entryX=0;entryY=0.5;entryDx=0;entryDy=0;" edge="1" parent="1" source="18" target="119">
                    <mxGeometry relative="1" as="geometry"/>
                </mxCell>
                <mxCell id="126" value="" style="childLayout=tableLayout;recursiveResize=0;shadow=0;fillColor=default;" vertex="1" parent="1">
                    <mxGeometry x="440" y="620" width="305" height="53" as="geometry"/>
                </mxCell>
                <mxCell id="127" value="" style="shape=tableRow;horizontal=0;startSize=0;swimlaneHead=0;swimlaneBody=0;top=0;left=0;bottom=0;right=0;dropTarget=0;collapsible=0;recursiveResize=0;expand=0;fontStyle=0;fillColor=none;strokeColor=inherit;" vertex="1" parent="126">
                    <mxGeometry width="305" height="25" as="geometry"/>
                </mxCell>
                <mxCell id="128" value="6" style="connectable=0;recursiveResize=0;strokeColor=inherit;fillColor=none;align=center;whiteSpace=wrap;html=1;" vertex="1" parent="127">
                    <mxGeometry width="215" height="25" as="geometry">
                        <mxRectangle width="215" height="25" as="alternateBounds"/>
                    </mxGeometry>
                </mxCell>
                <mxCell id="129" value="LA" style="connectable=0;recursiveResize=0;strokeColor=inherit;fillColor=none;align=center;whiteSpace=wrap;html=1;" vertex="1" parent="127">
                    <mxGeometry x="215" width="90" height="25" as="geometry">
                        <mxRectangle width="90" height="25" as="alternateBounds"/>
                    </mxGeometry>
                </mxCell>
                <mxCell id="130" style="shape=tableRow;horizontal=0;startSize=0;swimlaneHead=0;swimlaneBody=0;top=0;left=0;bottom=0;right=0;dropTarget=0;collapsible=0;recursiveResize=0;expand=0;fontStyle=0;fillColor=none;strokeColor=inherit;" vertex="1" parent="126">
                    <mxGeometry y="25" width="305" height="28" as="geometry"/>
                </mxCell>
                <mxCell id="131" value="num -&amp;gt; DIGIT ." style="connectable=0;recursiveResize=0;strokeColor=inherit;fillColor=none;align=left;whiteSpace=wrap;html=1;" vertex="1" parent="130">
                    <mxGeometry width="215" height="28" as="geometry">
                        <mxRectangle width="215" height="28" as="alternateBounds"/>
                    </mxGeometry>
                </mxCell>
                <mxCell id="132" value="" style="connectable=0;recursiveResize=0;strokeColor=inherit;fillColor=none;align=center;whiteSpace=wrap;html=1;" vertex="1" parent="130">
                    <mxGeometry x="215" width="90" height="28" as="geometry">
                        <mxRectangle width="90" height="28" as="alternateBounds"/>
                    </mxGeometry>
                </mxCell>
                <mxCell id="133" style="edgeStyle=orthogonalEdgeStyle;html=1;exitX=1;exitY=0.5;exitDx=0;exitDy=0;entryX=0;entryY=0.75;entryDx=0;entryDy=0;" edge="1" parent="1" source="24" target="130">
                    <mxGeometry relative="1" as="geometry">
                        <Array as="points">
                            <mxPoint x="370" y="397"/>
                            <mxPoint x="370" y="666"/>
                        </Array>
                    </mxGeometry>
                </mxCell>
                <mxCell id="134" value="" style="childLayout=tableLayout;recursiveResize=0;shadow=0;fillColor=default;" vertex="1" parent="1">
                    <mxGeometry x="890" y="100" width="305" height="81" as="geometry"/>
                </mxCell>
                <mxCell id="135" value="" style="shape=tableRow;horizontal=0;startSize=0;swimlaneHead=0;swimlaneBody=0;top=0;left=0;bottom=0;right=0;dropTarget=0;collapsible=0;recursiveResize=0;expand=0;fontStyle=0;fillColor=none;strokeColor=inherit;" vertex="1" parent="134">
                    <mxGeometry width="305" height="25" as="geometry"/>
                </mxCell>
                <mxCell id="136" value="7" style="connectable=0;recursiveResize=0;strokeColor=inherit;fillColor=none;align=center;whiteSpace=wrap;html=1;" vertex="1" parent="135">
                    <mxGeometry width="215" height="25" as="geometry">
                        <mxRectangle width="215" height="25" as="alternateBounds"/>
                    </mxGeometry>
                </mxCell>
                <mxCell id="137" value="LA" style="connectable=0;recursiveResize=0;strokeColor=inherit;fillColor=none;align=center;whiteSpace=wrap;html=1;" vertex="1" parent="135">
                    <mxGeometry x="215" width="90" height="25" as="geometry">
                        <mxRectangle width="90" height="25" as="alternateBounds"/>
                    </mxGeometry>
                </mxCell>
                <mxCell id="138" style="shape=tableRow;horizontal=0;startSize=0;swimlaneHead=0;swimlaneBody=0;top=0;left=0;bottom=0;right=0;dropTarget=0;collapsible=0;recursiveResize=0;expand=0;fontStyle=0;fillColor=none;strokeColor=inherit;" vertex="1" parent="134">
                    <mxGeometry y="25" width="305" height="28" as="geometry"/>
                </mxCell>
                <mxCell id="139" value="stmt -&amp;gt; IF expr . THEN stmt ELSE stmt" style="connectable=0;recursiveResize=0;strokeColor=inherit;fillColor=none;align=left;whiteSpace=wrap;html=1;" vertex="1" parent="138">
                    <mxGeometry width="215" height="28" as="geometry">
                        <mxRectangle width="215" height="28" as="alternateBounds"/>
                    </mxGeometry>
                </mxCell>
                <mxCell id="140" value="" style="connectable=0;recursiveResize=0;strokeColor=inherit;fillColor=none;align=center;whiteSpace=wrap;html=1;" vertex="1" parent="138">
                    <mxGeometry x="215" width="90" height="28" as="geometry">
                        <mxRectangle width="90" height="28" as="alternateBounds"/>
                    </mxGeometry>
                </mxCell>
                <mxCell id="156" style="shape=tableRow;horizontal=0;startSize=0;swimlaneHead=0;swimlaneBody=0;top=0;left=0;bottom=0;right=0;dropTarget=0;collapsible=0;recursiveResize=0;expand=0;fontStyle=0;fillColor=none;strokeColor=inherit;" vertex="1" parent="134">
                    <mxGeometry y="53" width="305" height="28" as="geometry"/>
                </mxCell>
                <mxCell id="157" value="expr -&amp;gt; expr . + expr" style="connectable=0;recursiveResize=0;strokeColor=inherit;fillColor=none;align=left;whiteSpace=wrap;html=1;" vertex="1" parent="156">
                    <mxGeometry width="215" height="28" as="geometry">
                        <mxRectangle width="215" height="28" as="alternateBounds"/>
                    </mxGeometry>
                </mxCell>
                <mxCell id="158" style="connectable=0;recursiveResize=0;strokeColor=inherit;fillColor=none;align=center;whiteSpace=wrap;html=1;" vertex="1" parent="156">
                    <mxGeometry x="215" width="90" height="28" as="geometry">
                        <mxRectangle width="90" height="28" as="alternateBounds"/>
                    </mxGeometry>
                </mxCell>
                <mxCell id="153" style="edgeStyle=none;html=1;exitX=1;exitY=0.5;exitDx=0;exitDy=0;entryX=0;entryY=0.5;entryDx=0;entryDy=0;" edge="1" parent="1" source="92" target="138">
                    <mxGeometry relative="1" as="geometry"/>
                </mxCell>
                <mxCell id="155" style="edgeStyle=orthogonalEdgeStyle;shape=connector;rounded=1;html=1;exitX=1;exitY=0.5;exitDx=0;exitDy=0;entryX=1;entryY=0.5;entryDx=0;entryDy=0;labelBackgroundColor=default;strokeColor=default;fontFamily=Helvetica;fontSize=11;fontColor=default;endArrow=classic;" edge="1" parent="1" source="141" target="119">
                    <mxGeometry relative="1" as="geometry">
                        <Array as="points">
                            <mxPoint x="790" y="167"/>
                            <mxPoint x="790" y="549"/>
                        </Array>
                    </mxGeometry>
                </mxCell>
                <mxCell id="159" style="edgeStyle=orthogonalEdgeStyle;shape=connector;rounded=1;html=1;exitX=1;exitY=0.5;exitDx=0;exitDy=0;entryX=1;entryY=0.5;entryDx=0;entryDy=0;labelBackgroundColor=default;strokeColor=default;fontFamily=Helvetica;fontSize=11;fontColor=default;endArrow=classic;jumpStyle=arc;" edge="1" parent="1" source="150" target="130">
                    <mxGeometry relative="1" as="geometry">
                        <Array as="points">
                            <mxPoint x="770" y="251"/>
                            <mxPoint x="770" y="659"/>
                        </Array>
                    </mxGeometry>
                </mxCell>
            </root>
        </mxGraphModel>
    </diagram>
</mxfile>